<svg width="135" height="31" viewBox="0 0 135 31" fill="none" xmlns="http://www.w3.org/2000/svg">
<path d="M58.3313 14.6672H61.283C60.6601 16.9776 58.578 19.6379 54.7232 19.6379C50.0992 19.6379 47.4736 16.2567 47.4736 12.0744C47.4736 7.89219 50.0992 4.51099 54.7232 4.51099C58.8121 4.51099 60.9067 7.50432 61.3792 9.89899H58.4902C58.0554 8.62999 56.868 7.03635 54.7609 7.03635C51.9262 7.03635 50.2999 9.28346 50.2999 12.0786C50.2999 14.8738 51.9262 17.1209 54.7609 17.1209C56.6506 17.1167 57.7962 15.8435 58.3313 14.6672ZM71.7812 16.4464C71.7812 17.1378 71.7812 18.9675 72.1156 19.4735H69.5319C69.3437 18.9465 69.2601 18.4237 69.2183 17.8334C68.3445 18.9886 67.0735 19.6421 65.5726 19.6421C63.4069 19.6421 62.115 18.2129 62.115 16.3452C62.115 13.5711 65.0333 12.8586 69.118 13.0863C69.118 11.8678 68.5745 11.071 67.0777 11.071C65.7858 11.071 65.2214 11.7835 65.0792 12.4159H62.4537C62.8927 10.1477 64.5775 8.88716 67.2449 8.88716C69.557 8.88716 71.7854 9.81046 71.7854 13.6765V16.4464H71.7812ZM69.1138 14.8485C67.0526 14.6167 64.7782 14.9118 64.7782 16.2145C64.7782 17.0746 65.4054 17.5172 66.5091 17.454C67.6965 17.3908 68.9047 16.1934 69.1138 14.8485Z" fill="#063C4A"/>
<path d="M41.031 13.8958C41.031 11.6234 40.1948 8.1326 37.8535 5.14348C36.0139 2.79519 32.6191 0 26.8913 0C22.3801 0 19.2361 1.64844 16.2594 3.31375C12.9983 5.13926 11.4388 5.62831 9.05575 6.55583C5.02539 8.12417 1.7476 9.35101 0.476618 12.3696C0.158872 13.0906 0 13.8579 0 14.6547C0 17.7408 2.43744 20.2535 5.56891 20.3167C5.63998 20.3167 5.7027 20.3631 5.7236 20.4306C6.45525 22.6693 8.49133 24.2123 10.9037 24.2123C13.316 24.2123 15.3647 22.6229 16.0838 20.4306C16.1047 20.3631 16.1716 20.3125 16.2426 20.3125H24.6378C24.7089 20.3125 24.7758 20.3589 24.7967 20.4306C25.5158 22.6229 27.5644 24.2123 29.9768 24.2123C32.4017 24.2123 34.4628 22.606 35.1694 20.3926C35.1903 20.3294 35.2447 20.283 35.3116 20.2788C38.5225 19.95 41.031 17.2138 41.031 13.8958ZM11.3427 21.2485C9.60344 21.5394 8.11087 20.0343 8.39935 18.2804C8.57495 17.218 9.42366 16.3579 10.4814 16.1809C12.2207 15.89 13.7132 17.3951 13.4247 19.1489C13.2491 20.2113 12.4004 21.0714 11.3427 21.2485ZM30.4158 21.2485C28.6765 21.5394 27.184 20.0343 27.4724 18.2804C27.648 17.218 28.4967 16.3579 29.5545 16.1809C31.2979 15.89 32.7863 17.3951 32.4978 19.1489C32.3222 20.2113 31.4735 21.0714 30.4158 21.2485ZM35.5039 17.6312C35.4119 17.6522 35.3241 17.589 35.3032 17.5005C34.7513 15.051 32.5773 13.2171 29.9851 13.2171C27.3596 13.2171 25.1604 15.0974 24.6462 17.5932C24.6295 17.6733 24.5626 17.7281 24.4831 17.7281H16.4141C16.3346 17.7281 16.2677 17.6691 16.251 17.5932C15.7368 15.0974 13.5376 13.2171 10.912 13.2171C8.29065 13.2171 6.0957 15.0932 5.57727 17.5806C5.56055 17.6649 5.48529 17.7239 5.40167 17.7197C3.82131 17.6059 2.57123 16.2778 2.57123 14.6547C2.57123 14.4228 2.59632 14.1994 2.64649 13.9759C3.23181 11.6487 5.58145 10.6411 9.96717 8.97579C13.847 7.5002 14.771 7.03645 17.476 5.59459C20.6326 3.9082 23.0282 2.5886 26.8913 2.5886C31.5906 2.5886 34.35 4.85258 35.8383 6.74976C37.7741 9.22032 38.4597 12.1462 38.4597 13.9C38.4639 15.7171 37.1971 17.2433 35.5039 17.6312Z" fill="#6BC24A"/>
<path d="M20.4735 30.9999C18.1824 30.9999 15.9916 30.0682 14.3904 28.4282C14.1939 28.2258 14.2064 27.9012 14.4154 27.7157L15.8787 26.4256C16.0669 26.257 16.3512 26.2654 16.5351 26.4467C17.5845 27.4838 18.9977 28.0698 20.4735 28.0698C21.9493 28.0698 23.3625 27.4838 24.4119 26.4467C24.5917 26.2696 24.876 26.2612 25.0683 26.4256L26.5316 27.7157C26.7406 27.9012 26.7532 28.2258 26.5567 28.4282C24.9554 30.0682 22.7646 30.9999 20.4735 30.9999Z" fill="#6BC24A"/>
<path d="M94.2908 15.228C94.2908 17.6649 92.6645 19.4735 89.6668 19.4735H82.6221V4.67969H88.4544C91.6653 4.67969 93.6219 6.06674 93.6219 8.71437C93.6219 10.0803 92.7063 11.2566 91.682 11.7204C93.3543 12.2431 94.2908 13.6513 94.2908 15.228ZM85.4567 10.7296H88.3958C89.9595 10.7296 90.6451 9.86954 90.6451 8.81555C90.6451 7.76578 89.9553 7.1123 88.3958 7.1123H85.4567V10.7296ZM91.4562 15.0594C91.4562 13.9675 90.5615 13.0821 88.9352 13.0821H85.4567V17.0325H88.9352C90.666 17.0367 91.4562 16.1935 91.4562 15.0594Z" fill="#063C4A"/>
<path d="M112.833 16.4464C112.833 17.1421 112.833 18.9676 113.168 19.4735H110.584C110.396 18.9465 110.312 18.4237 110.27 17.8335C109.396 18.9887 108.125 19.6421 106.625 19.6421C104.459 19.6421 103.167 18.2129 103.167 16.3453C103.167 13.5711 106.085 12.8586 110.17 13.0863C110.17 11.8679 109.626 11.0711 108.13 11.0711C106.838 11.0711 106.273 11.7836 106.131 12.416H103.506C103.945 10.1478 105.63 8.88721 108.297 8.88721C110.609 8.88721 112.837 9.8105 112.837 13.6765V16.4464H112.833ZM110.166 14.8486C108.105 14.6167 105.83 14.9118 105.83 16.2146C105.83 17.0746 106.457 17.5173 107.561 17.4541C108.748 17.3908 109.957 16.1935 110.166 14.8486Z" fill="#063C4A"/>
<path d="M118.795 15.7298L116.42 9.05176H113.46L117.628 19.4736H119.961L124.13 9.05176H121.169L118.795 15.7298Z" fill="#063C4A"/>
<path d="M135 14.2626C135 17.2265 132.834 19.6422 129.665 19.6422C126.438 19.6422 124.331 17.2265 124.331 14.2626C124.331 11.2988 126.291 8.88306 129.665 8.88306C132.834 8.88306 135 11.2988 135 14.2626ZM132.337 14.2626C132.337 12.6859 131.212 11.4042 129.67 11.4042C128.127 11.4042 127.002 12.6859 127.002 14.2626C127.002 15.8394 128.127 17.1211 129.67 17.1211C131.208 17.1168 132.337 15.8352 132.337 14.2626Z" fill="#063C4A"/>
<path d="M80.9708 9.00953C80.674 8.95894 80.3897 8.94629 80.1054 8.94629C78.6672 8.94629 77.4798 9.61663 76.8568 11.088V9.05169H74.1895V19.4736H76.8568V14.7432C76.8568 12.6437 78.086 11.674 79.6288 11.674C80.0594 11.674 80.5193 11.7415 80.975 11.8932V9.00953H80.9708Z" fill="#063C4A"/>
<path d="M102.77 9.00953C102.473 8.95894 102.188 8.94629 101.904 8.94629C100.466 8.94629 99.2786 9.61663 98.6557 11.088V9.05169H95.9883V19.4736H98.6557V14.7432C98.6557 12.6437 99.8848 11.674 101.428 11.674C101.858 11.674 102.318 11.7415 102.774 11.8932V9.00953H102.77Z" fill="#063C4A"/>
</svg>
