<svg width="94" height="40" viewBox="0 0 94 40" fill="none" xmlns="http://www.w3.org/2000/svg">
<path d="M67.9952 26.1856C67.5117 26.1856 67.3706 25.9237 67.6124 25.3595L72.2667 13.8144H89.6549L88.6475 16.3128H78.8755L77.8882 18.7508H87.4587L86.4513 21.2492H76.8807L75.8935 23.6872H85.6655L84.6581 26.1856H67.9952Z" fill="black"/>
<path d="M65.2006 26.1856H47.7117L48.7191 23.6872H57.524C57.5643 23.6872 57.6248 23.6469 57.6651 23.526L57.7457 23.3044C57.7457 23.2842 57.7457 23.2641 57.7457 23.2439V23.2036L51.8018 18.9926C51.6406 18.8918 51.5399 18.7508 51.4795 18.5695C51.419 18.3881 51.3989 18.1866 51.3989 17.9448C51.3989 17.562 51.4593 17.1389 51.5802 16.6956C51.7011 16.2524 51.8421 15.8695 52.0033 15.5472L52.3257 14.7815C52.4264 14.5196 52.6078 14.298 52.8496 14.0965C53.0913 13.9151 53.3331 13.8144 53.5749 13.8144H70.943L69.9355 16.3128H59.8008C59.6799 16.3128 59.5792 16.4136 59.4986 16.615C59.4583 16.8165 59.4986 16.9173 59.5792 16.9173L66.6513 21.9746C66.7924 22.0955 66.8931 22.2365 66.9535 22.4178C67.014 22.5992 67.0543 22.7805 67.0543 22.982C67.0543 23.3044 66.9938 23.5864 66.873 23.8685L66.2886 25.3595C66.0469 25.9237 65.6842 26.1856 65.2006 26.1856Z" fill="black"/>
<path d="M51.385 13.8144L46.3881 26.1856H38.7518L40.4644 21.9544H35.79L34.0773 26.1856H26.4612L30.5312 16.0912C30.6118 15.8897 30.7528 15.6479 30.9543 15.3658C31.1356 15.1039 31.3573 14.8621 31.6192 14.6203C31.861 14.3987 32.1431 14.2174 32.4655 14.0562C32.7677 13.895 33.0901 13.8144 33.4124 13.8144H51.385ZM37.8854 16.7561L36.7974 19.456H41.4719L42.7412 16.3128H38.4294C38.3085 16.3128 38.1876 16.3733 38.107 16.4539C38.0063 16.5546 37.9257 16.6553 37.8854 16.7561Z" fill="black"/>
<path d="M23.1637 26.1856H4.34497L9.34181 13.8144H29.5307C29.6314 13.8144 29.712 13.9151 29.7926 14.1166C29.853 14.3181 29.8329 14.5397 29.7523 14.7815L28.5837 17.6628C28.3621 18.1866 28.1001 18.6299 27.7777 18.9926C27.4554 19.3754 27.1128 19.7179 26.7502 20.0201C26.8912 20.4634 26.9718 20.8261 26.9718 21.088C26.9718 21.3298 26.8711 21.7328 26.6897 22.3372L26.045 23.929C25.9442 24.1708 25.8032 24.4125 25.6017 24.6745C25.4002 24.9364 25.1786 25.1782 24.9167 25.3998C24.6547 25.6214 24.3726 25.8028 24.0704 25.964C23.7682 26.1252 23.466 26.1856 23.1637 26.1856ZM15.9505 16.3128L12.9686 23.6872H18.1669C18.2676 23.6872 18.3684 23.6469 18.4691 23.5461C18.5699 23.4656 18.6504 23.3648 18.6907 23.2439L19.4967 21.2291H16.1319L17.1393 18.7306H20.5041L21.4914 16.3128H15.9505Z" fill="black"/>
</svg>
